<?xml version="1.0" encoding="utf-8"?>
<!-- Generator: Adobe Illustrator 20.0.0, SVG Export Plug-In . SVG Version: 6.00 Build 0)  -->
<svg version="1.1" id="Layer_1" xmlns="http://www.w3.org/2000/svg" xmlns:xlink="http://www.w3.org/1999/xlink" x="0px" y="0px"
	 viewBox="0 0 512 512" style="enable-background:new 0 0 512 512;" xml:space="preserve">
<style type="text/css">
	.st0{fill:#FFD54F;}
	.st1{fill:#EDB937;}
	.st2{fill:#666666;}
	.st3{fill:#15BDB2;}
	.st4{fill:#FFFFFF;}
	.st5{fill:#ECF0F1;}
	.st6{fill:#B6B6B8;}
	.st7{fill:#C2C2C4;}
</style>
<circle class="st0" cx="256" cy="256" r="256"/>
<ellipse class="st1" cx="256" cy="421.6" rx="182.3" ry="14.4"/>
<path class="st2" d="M66,67.2h380c12.5,0,22.7,10.2,22.7,22.7V324H43.3V89.9C43.3,77.4,53.5,67.2,66,67.2z"/>
<path class="st3" d="M58.7,308.6h394.6V89.9c0-4-3.3-7.3-7.3-7.3H66c-4,0-7.3,3.3-7.3,7.3L58.7,308.6L58.7,308.6L58.7,308.6z"/>
<path class="st4" d="M468.7,324v24.8c0,12.5-11.3,22.7-25,22.7H68.3c-13.8,0-25-10.2-25-22.7V324H468.7L468.7,324z"/>
<path class="st4" d="M365.2,183.7l6.3-24.1l-14.3-5.6c0.5-5.4,0.5-10.9-0.1-16.3l14.3-5.8l-6.6-24.1l-15.2,2.3
	c-2.3-4.9-5-9.6-8.2-14.1l9.5-12.1l-17.7-17.6l-12,9.6c-4.5-3.2-9.2-5.9-14.1-8.1l2.1-15.2l-24.1-6.3l-5.6,14.3
	c-5.4-0.5-10.9-0.5-16.3,0.1l-5.8-14.3L233.2,53l2.3,15.2l0,0c-4.9,2.3-9.6,5-14.1,8.2L209.3,67l-17.6,17.7l9.6,12
	c-3.2,4.5-5.9,9.2-8.1,14.1l-15.2-2.1l-6.3,24.1l14.3,5.6c-0.5,5.4-0.5,10.9,0.1,16.3l-14.3,5.8l6.6,24.1l15.2-2.3
	c2.3,4.9,5,9.6,8.2,14.1l-9.5,12.1l17.7,17.6l12-9.6c4.5,3.2,9.2,5.9,14.1,8.1l-2.1,15.2l24.1,6.3l5.6-14.3
	c5.4,0.5,10.9,0.5,16.3-0.1L286,246l24.1-6.6l-2.3-15.2c4.9-2.3,9.6-5,14.1-8.2l12.1,9.5l17.6-17.7l-9.6-12
	c3.2-4.5,5.9-9.2,8.1-14.1L365.2,183.7z M299.6,173.9c-15.3,15.4-40.2,15.6-55.7,0.3c-15.4-15.3-15.6-40.2-0.3-55.7
	c15.3-15.4,40.2-15.6,55.7-0.3C314.7,133.6,314.9,158.5,299.6,173.9z"/>
<path class="st5" d="M271.6,95.4c-28.1,0-50.8,22.7-50.8,50.8c0,28.1,22.8,50.8,50.8,50.8c28.1,0,50.8-22.8,50.8-50.8
	C322.4,118.2,299.7,95.4,271.6,95.4z M299.6,173.9c-15.3,15.4-40.2,15.6-55.7,0.3c-15.4-15.3-15.6-40.2-0.3-55.7
	c15.3-15.4,40.2-15.6,55.7-0.3C314.7,133.6,314.9,158.5,299.6,173.9z"/>
<path class="st4" d="M456.7,201.7c0.1-2.4,0-4.8-0.4-7.2l6.9-3.9l-7.8-16.3l-7.4,2.7c-1.6-1.8-3.4-3.4-5.4-4.8l2.1-7.6l-17-6
	l-3.4,7.1c-2.4-0.1-4.8,0-7.2,0.4l-3.9-6.9L397,167l2.7,7.4c-1.8,1.6-3.4,3.4-4.8,5.4l-7.6-2.1l-6,17l7.1,3.4
	c-0.1,2.4,0,4.8,0.4,7.2l-6.9,3.9l7.8,16.3l7.4-2.7c1.6,1.8,3.4,3.4,5.4,4.8l-2.1,7.6l17,6l3.4-7.1c2.4,0.1,4.8,0,7.2-0.4l3.9,6.9
	l16.3-7.8l-2.7-7.4c1.8-1.6,3.4-3.4,4.8-5.4l7.6,2.1l6-17L456.7,201.7z M435.3,212.5c-7,7-18.3,7.1-25.4,0.1c-7-7-7.1-18.3-0.1-25.4
	c7-7,18.3-7.1,25.4-0.1C442.2,194.1,442.2,205.4,435.3,212.5z"/>
<path class="st5" d="M422.5,174.3c-14.1,0-25.6,11.4-25.6,25.6c0,14.1,11.4,25.6,25.6,25.6c14.1,0,25.6-11.4,25.6-25.6
	C448.1,185.7,436.6,174.3,422.5,174.3z M435.3,212.5c-7,7-18.3,7.1-25.4,0.1c-7-7-7.1-18.3-0.1-25.4v0c7-7,18.3-7.1,25.4-0.1
	C442.2,194.1,442.2,205.4,435.3,212.5z"/>
<circle class="st6" cx="256" cy="346.8" r="7.8"/>
<path class="st7" d="M305.1,407.3l36.1,11.6H170.8l29.1-11.6v-35.7h105.1L305.1,407.3L305.1,407.3z"/>
<path class="st6" d="M305.1,407.3L200,371.6h105.1V407.3z"/>
<path class="st5" d="M200,407.3h105.1l36.1,11.6v5H256h-85.2v-5L200,407.3L200,407.3z"/>
</svg>
