<?xml version="1.0" encoding="utf-8"?>
<!-- Generator: Adobe Illustrator 20.0.0, SVG Export Plug-In . SVG Version: 6.00 Build 0)  -->
<svg version="1.1" id="Layer_1" xmlns="http://www.w3.org/2000/svg" xmlns:xlink="http://www.w3.org/1999/xlink" x="0px" y="0px"
	 viewBox="0 0 512 512" style="enable-background:new 0 0 512 512;" xml:space="preserve">
<style type="text/css">
	.st0{fill:#42A5F5;}
	.st1{fill:#FAD24D;}
	.st2{fill:#FFD95E;}
	.st3{fill:#EDB937;}
	.st4{fill:#FFFFFF;}
	.st5{fill:#ECF0F1;}
	.st6{fill:#666666;}
</style>
<circle class="st0" cx="256" cy="256" r="256"/>
<path class="st1" d="M90.1,247h331.8v204C377.2,489,319.3,512,256,512s-121.2-23-165.9-61V247L90.1,247z"/>
<circle class="st2" cx="256" cy="434.8" r="63.3"/>
<circle class="st3" cx="256" cy="434.8" r="56.5"/>
<path class="st4" d="M217.9,85.8h76.1c43.9,0,79.8,35.9,79.8,79.8V247h-45.5v-81.4c0-18.8-15.5-34.4-34.4-34.4h-76.1
	c-18.8,0-34.4,15.5-34.4,34.4V247h-45.5v-81.4C138.1,121.7,174,85.8,217.9,85.8L217.9,85.8z"/>
<path class="st5" d="M256,122.1l-41.7,0.3c-10.5,0.7-39.7,8-40.5,42.6v82h9.8v-81.4c0-18.8,15.5-34.4,34.4-34.4h76.1
	c18.8,0,34.4,15.5,34.4,34.4V247h9.8V165c-0.8-34.5-30-41.9-40.5-42.6L256,122.1z"/>
<path class="st3" d="M226.8,274.6c4.1,0,7.4,3.3,7.4,7.4c0,4.1-3.3,7.4-7.4,7.4c-4.1,0-7.4-3.3-7.4-7.4
	C219.4,278,222.7,274.6,226.8,274.6z M285.2,274.6c4.1,0,7.4,3.3,7.4,7.4c0,4.1-3.3,7.4-7.4,7.4c-4.1,0-7.4-3.3-7.4-7.4
	C277.8,278,281.1,274.6,285.2,274.6z M256,274.6c4.1,0,7.4,3.3,7.4,7.4c0,4.1-3.3,7.4-7.4,7.4c-4.1,0-7.4-3.3-7.4-7.4
	C248.6,278,251.9,274.6,256,274.6z"/>
<path class="st6" d="M256,411.7c5.3,0,9.7,4.3,9.7,9.6c0,3.4-1.8,6.4-4.5,8.2v23.4c0,2.8-2.3,5.2-5.2,5.2h0c-2.8,0-5.2-2.3-5.2-5.2
	v-23.4c-2.7-1.7-4.5-4.7-4.5-8.2C246.3,416,250.7,411.7,256,411.7L256,411.7z"/>
</svg>
